<svg width="32" height="32" viewBox="0 0 32 32" fill="none" xmlns="http://www.w3.org/2000/svg">
<rect width="32" height="32" rx="4" fill="#F3E8FF"/>
<mask id="mask0_15000_77918" style="mask-type:alpha" maskUnits="userSpaceOnUse" x="4" y="4" width="24" height="24">
<rect x="4" y="4" width="24" height="24" fill="#D9D9D9"/>
</mask>
<g mask="url(#mask0_15000_77918)">
<path d="M16.9984 16.6004V13.0004C16.9984 12.7171 16.9026 12.4796 16.7109 12.2879C16.5193 12.0962 16.2818 12.0004 15.9984 12.0004C15.7151 12.0004 15.4776 12.0962 15.2859 12.2879C15.0943 12.4796 14.9984 12.7171 14.9984 13.0004V16.9754C14.9984 17.1087 15.0234 17.2379 15.0734 17.3629C15.1234 17.4879 15.1984 17.6004 15.2984 17.7004L18.0984 20.5004C18.2818 20.6837 18.5151 20.7754 18.7984 20.7754C19.0818 20.7754 19.3151 20.6837 19.4984 20.5004C19.6818 20.3171 19.7734 20.0837 19.7734 19.8004C19.7734 19.5171 19.6818 19.2837 19.4984 19.1004L16.9984 16.6004ZM15.9984 26.0004C14.7484 26.0004 13.5776 25.7629 12.4859 25.2879C11.3943 24.8129 10.4443 24.1712 9.63594 23.3629C8.8276 22.5546 8.18594 21.6046 7.71094 20.5129C7.23594 19.4212 6.99844 18.2504 6.99844 17.0004C6.99844 15.7504 7.23594 14.5796 7.71094 13.4879C8.18594 12.3962 8.8276 11.4462 9.63594 10.6379C10.4443 9.82956 11.3943 9.18789 12.4859 8.71289C13.5776 8.23789 14.7484 8.00039 15.9984 8.00039C17.2484 8.00039 18.4193 8.23789 19.5109 8.71289C20.6026 9.18789 21.5526 9.82956 22.3609 10.6379C23.1693 11.4462 23.8109 12.3962 24.2859 13.4879C24.7609 14.5796 24.9984 15.7504 24.9984 17.0004C24.9984 18.2504 24.7609 19.4212 24.2859 20.5129C23.8109 21.6046 23.1693 22.5546 22.3609 23.3629C21.5526 24.1712 20.6026 24.8129 19.5109 25.2879C18.4193 25.7629 17.2484 26.0004 15.9984 26.0004ZM6.04844 11.3004C5.8651 11.1171 5.77344 10.8837 5.77344 10.6004C5.77344 10.3171 5.8651 10.0837 6.04844 9.90039L8.89844 7.05039C9.08177 6.86706 9.3151 6.77539 9.59844 6.77539C9.88177 6.77539 10.1151 6.86706 10.2984 7.05039C10.4818 7.23372 10.5734 7.46706 10.5734 7.75039C10.5734 8.03372 10.4818 8.26706 10.2984 8.45039L7.44844 11.3004C7.2651 11.4837 7.03177 11.5754 6.74844 11.5754C6.4651 11.5754 6.23177 11.4837 6.04844 11.3004ZM25.9484 11.3004C25.7651 11.4837 25.5318 11.5754 25.2484 11.5754C24.9651 11.5754 24.7318 11.4837 24.5484 11.3004L21.6984 8.45039C21.5151 8.26706 21.4234 8.03372 21.4234 7.75039C21.4234 7.46706 21.5151 7.23372 21.6984 7.05039C21.8818 6.86706 22.1151 6.77539 22.3984 6.77539C22.6818 6.77539 22.9151 6.86706 23.0984 7.05039L25.9484 9.90039C26.1318 10.0837 26.2234 10.3171 26.2234 10.6004C26.2234 10.8837 26.1318 11.1171 25.9484 11.3004ZM15.9984 24.0004C17.9484 24.0004 19.6026 23.3212 20.9609 21.9629C22.3193 20.6046 22.9984 18.9504 22.9984 17.0004C22.9984 15.0504 22.3193 13.3962 20.9609 12.0379C19.6026 10.6796 17.9484 10.0004 15.9984 10.0004C14.0484 10.0004 12.3943 10.6796 11.0359 12.0379C9.6776 13.3962 8.99844 15.0504 8.99844 17.0004C8.99844 18.9504 9.6776 20.6046 11.0359 21.9629C12.3943 23.3212 14.0484 24.0004 15.9984 24.0004Z" fill="#9678F2"/>
</g>
</svg>
